<svg width="60" height="60" viewBox="0 0 60 60" fill="none" xmlns="http://www.w3.org/2000/svg">
<path d="M57.8904 33.7249C59.691 31.568 59.691 28.432 57.8904 26.2751L55.662 23.6057C54.6768 22.4255 54.1993 20.903 54.334 19.3715L54.6419 15.8701C54.8946 12.9974 53.0028 10.3738 50.1974 9.70625L47.3787 9.03551C45.8036 8.66069 44.4562 7.64587 43.661 6.23547L42.1887 3.62402C40.7123 1.00521 37.4825 -0.055613 34.7408 1.17776L32.3846 2.23773C30.8681 2.91997 29.1319 2.91997 27.6154 2.23773L25.2526 1.17483C22.5137 -0.0573168 19.287 1.00008 17.8086 3.61431L16.3443 6.20337C15.5459 7.61518 14.1939 8.62917 12.615 9.00031L9.81824 9.65771C7.00558 10.3189 5.10555 12.9456 5.35802 15.8239L5.6672 19.3487C5.80118 20.8762 5.32614 22.3948 4.34554 23.5737L2.09747 26.2763C0.303153 28.4334 0.305909 31.5643 2.10401 33.7183L4.33847 36.3949C5.32341 37.5748 5.80097 39.0967 5.66667 40.6277L5.3568 44.1605C5.10486 47.0327 6.99654 49.6555 9.80148 50.323L12.6258 50.9951C14.1983 51.3693 15.544 52.3814 16.3397 53.7883L17.8019 56.3738C19.2831 58.993 22.5185 60.0487 25.2595 58.8072L27.61 57.7425C29.1295 57.0543 30.8715 57.0521 32.3928 57.7364L34.7474 58.7956C37.4863 60.0278 40.713 58.9704 42.1914 56.3562L43.6603 53.7588C44.456 52.3518 45.8017 51.3398 47.3742 50.9656L50.1974 50.2937C53.0028 49.6262 54.8946 47.0026 54.6419 44.1299L54.334 40.6285C54.1993 39.097 54.6768 37.5745 55.662 36.3943L57.8904 33.7249Z" fill="#F0D288"/>
</svg>
