<svg width="12" height="14" viewBox="0 0 12 14" fill="none" xmlns="http://www.w3.org/2000/svg">
<path d="M10 9.68876C9.49333 9.68876 9.04 9.88454 8.69333 10.1913L3.94 7.48293C3.97333 7.33283 4 7.18273 4 7.0261C4 6.86948 3.97333 6.71938 3.94 6.56928L8.64 3.88705C9 4.21335 9.47333 4.41566 10 4.41566C11.1067 4.41566 12 3.54116 12 2.45783C12 1.3745 11.1067 0.5 10 0.5C8.89333 0.5 8 1.3745 8 2.45783C8 2.61446 8.02667 2.76456 8.06 2.91466L3.36 5.59689C3 5.27058 2.52667 5.06827 2 5.06827C0.893333 5.06827 0 5.94277 0 7.0261C0 8.10944 0.893333 8.98394 2 8.98394C2.52667 8.98394 3 8.78163 3.36 8.45532L8.10667 11.1702C8.07333 11.3072 8.05333 11.4508 8.05333 11.5944C8.05333 12.6451 8.92667 13.5 10 13.5C11.0733 13.5 11.9467 12.6451 11.9467 11.5944C11.9467 10.5437 11.0733 9.68876 10 9.68876ZM10 1.80522C10.3667 1.80522 10.6667 2.0989 10.6667 2.45783C10.6667 2.81677 10.3667 3.11044 10 3.11044C9.63333 3.11044 9.33333 2.81677 9.33333 2.45783C9.33333 2.0989 9.63333 1.80522 10 1.80522ZM2 7.67871C1.63333 7.67871 1.33333 7.38504 1.33333 7.0261C1.33333 6.66717 1.63333 6.37349 2 6.37349C2.36667 6.37349 2.66667 6.66717 2.66667 7.0261C2.66667 7.38504 2.36667 7.67871 2 7.67871ZM10 12.26C9.63333 12.26 9.33333 11.9664 9.33333 11.6074C9.33333 11.2485 9.63333 10.9548 10 10.9548C10.3667 10.9548 10.6667 11.2485 10.6667 11.6074C10.6667 11.9664 10.3667 12.26 10 12.26Z" fill="#A1A6B4"/>
</svg>
